<svg width="114" height="50" viewBox="0 0 114 50" fill="none" xmlns="http://www.w3.org/2000/svg">
<path fill-rule="evenodd" clip-rule="evenodd" d="M21.6992 12.9348C32.4042 12.6406 53.6595 10.003 53.6595 24.9561C53.804 39.7646 34.4534 36.8328 21.6992 36.9773V49.7315C32.9875 49.8761 45.4526 50.9032 54.2479 46.6553C73.3096 37.4212 74.7754 12.7903 54.8363 3.25689C46.1804 -0.846548 32.9875 0.0309166 21.6992 0.180602V12.9348Z" fill="white"/>
<path fill-rule="evenodd" clip-rule="evenodd" d="M72.5715 12.9348C78.7292 13.229 97.7908 10.5914 97.7908 24.956C97.7908 30.675 94.2706 34.1901 90.0227 35.8056C85.1863 37.7102 78.0014 36.6831 72.4269 37.127C68.468 42.6963 65.975 45.6281 61.1386 49.7367C70.3726 50.1754 89.4343 50.4696 96.9134 47.2436C105.125 43.8731 112.749 36.6882 113.188 25.5444C113.482 13.3735 106.297 6.19377 97.796 2.81811C90.3117 -0.258175 71.1056 0.0308722 61.7219 0.180557C64.6536 2.9678 69.0513 5.46083 72.5715 12.9348Z" fill="white"/>
<path fill-rule="evenodd" clip-rule="evenodd" d="M0 49.8813H15.5414V6.33838L0 21.2914V49.8813Z" fill="white"/>
<path fill-rule="evenodd" clip-rule="evenodd" d="M0 15.278L16.1299 0.0307617H0V15.278Z" fill="white"/>
</svg>
